<svg width="237" height="108" viewBox="0 0 237 108" fill="none" xmlns="http://www.w3.org/2000/svg">
<rect x="0.5" y="0.5" width="236" height="107" rx="44.5" fill="#8E97A2" fill-opacity="0.67" stroke="black"/>
<path d="M16.645 71.555C16.575 69.245 16.54 67.0283 16.54 64.905C16.54 61.0783 16.6567 57.6133 16.89 54.51C17.1233 51.4067 17.4617 48.77 17.905 46.6C18.115 45.5967 18.4067 44.6283 18.78 43.695C19.1767 42.7617 19.725 42.0033 20.425 41.42C21.1483 40.8133 22.0933 40.51 23.26 40.51C24.4033 40.51 25.3717 40.8133 26.165 41.42C26.9583 42.0033 27.6 42.715 28.09 43.555C28.6033 44.395 28.9767 45.2 29.21 45.97C29.8167 47.79 30.33 49.61 30.75 51.43C31.17 53.25 31.5433 54.9883 31.87 56.645C32.1033 55.4317 32.3717 54.16 32.675 52.83C32.9783 51.4767 33.2817 50.205 33.585 49.015C33.8883 47.8017 34.1683 46.7983 34.425 46.005C35.615 42.3417 37.4467 40.51 39.92 40.51C41.2967 40.51 42.4633 41.0117 43.42 42.015C44.3767 42.995 45.0767 44.4183 45.52 46.285C45.73 47.125 45.94 48.35 46.15 49.96C46.3833 51.57 46.5933 53.4833 46.78 55.7C46.99 57.8933 47.165 60.32 47.305 62.98C47.4683 65.64 47.5967 68.4633 47.69 71.45L41.53 71.31C41.53 70.0733 41.495 68.6383 41.425 67.005C41.3783 65.3717 41.2967 63.68 41.18 61.93C41.0867 60.1567 40.97 58.43 40.83 56.75C40.7133 55.07 40.585 53.5533 40.445 52.2C40.3283 50.8467 40.2117 49.7733 40.095 48.98C39.9783 48.1633 39.8733 47.755 39.78 47.755C39.7567 47.755 39.6283 48.175 39.395 49.015C39.185 49.8317 38.9167 50.9283 38.59 52.305C38.2867 53.6817 37.9483 55.1983 37.575 56.855C37.2017 58.5117 36.8283 60.18 36.455 61.86C36.105 63.5167 35.79 65.0567 35.51 66.48C35.23 67.88 35.0083 69.0233 34.845 69.91L29.35 70.05C29.07 68.7433 28.7317 67.3083 28.335 65.745C27.9617 64.1583 27.565 62.5483 27.145 60.915C26.7483 59.2583 26.3517 57.6717 25.955 56.155C25.5583 54.615 25.185 53.2383 24.835 52.025C24.5083 50.8117 24.24 49.855 24.03 49.155C23.82 48.4317 23.6917 48.07 23.645 48.07C23.5517 48.07 23.4467 48.5833 23.33 49.61C23.2367 50.6133 23.1433 51.9783 23.05 53.705C22.9567 55.4317 22.875 57.38 22.805 59.55C22.7583 61.72 22.735 63.96 22.735 66.27C22.735 67.3667 22.735 68.37 22.735 69.28C22.7583 70.19 22.7817 70.9367 22.805 71.52L16.645 71.555ZM59.8156 71.765C58.0656 71.765 56.4789 71.31 55.0556 70.4C53.6323 69.5133 52.5006 68.3117 51.6606 66.795C50.8439 65.255 50.4356 63.54 50.4356 61.65C50.4356 59.8767 50.7623 58.2783 51.4156 56.855C52.0689 55.4083 52.9556 54.1717 54.0756 53.145C55.2189 52.1183 56.5139 51.3367 57.9606 50.8C59.4073 50.24 60.9239 49.96 62.5106 49.96C63.8406 49.96 65.1473 50.1467 66.4306 50.52C66.5239 50.03 66.6056 49.54 66.6756 49.05L72.6606 50.065C72.4973 50.5083 72.3339 51.1733 72.1706 52.06C72.0073 52.9467 71.8673 53.9383 71.7506 55.035C71.6573 56.1317 71.5756 57.2283 71.5056 58.325C71.4356 59.4217 71.4006 60.4133 71.4006 61.3C71.4006 62.0233 71.4473 62.735 71.5406 63.435C71.6573 64.1117 71.8906 64.6717 72.2406 65.115C72.5906 65.535 73.1273 65.745 73.8506 65.745H74.3406L73.4656 71.835C71.9256 71.835 70.6539 71.5667 69.6506 71.03C68.6473 70.5167 67.8423 69.8167 67.2356 68.93C66.2323 70.05 65.0889 70.7967 63.8056 71.17C62.5223 71.5667 61.1923 71.765 59.8156 71.765ZM56.1756 62.35C56.2923 63.47 56.7473 64.3683 57.5406 65.045C58.3573 65.6983 59.3839 66.025 60.6206 66.025C61.8106 66.025 62.8023 65.71 63.5956 65.08C64.3889 64.4267 65.0423 63.54 65.5556 62.42C65.5323 62.0467 65.5206 61.6617 65.5206 61.265C65.5206 60.4483 65.5439 59.6083 65.5906 58.745C65.6373 57.8817 65.6956 57.03 65.7656 56.19C64.7856 55.8167 63.7589 55.63 62.6856 55.63C61.4256 55.63 60.2939 55.8867 59.2906 56.4C58.3106 56.89 57.5406 57.5783 56.9806 58.465C56.4206 59.3517 56.1406 60.3783 56.1406 61.545C56.1406 61.685 56.1406 61.825 56.1406 61.965C56.1406 62.105 56.1523 62.2333 56.1756 62.35ZM76.4236 46.39C76.4236 46.18 76.412 45.97 76.3886 45.76C76.3886 45.5267 76.3886 45.27 76.3886 44.99C76.3886 44.2433 76.412 43.45 76.4586 42.61C76.5053 41.77 76.552 41.0583 76.5986 40.475L82.8286 40.58C82.7586 41.3733 82.677 42.2717 82.5836 43.275C82.5136 44.2783 82.467 45.3167 82.4436 46.39H76.4236ZM76.2836 71.45C76.2136 70.0033 76.167 68.4633 76.1436 66.83C76.1203 65.1733 76.1086 63.5167 76.1086 61.86C76.1086 59.69 76.132 57.5783 76.1786 55.525C76.2253 53.4717 76.2836 51.605 76.3536 49.925L82.3736 49.89C82.2803 50.9633 82.222 52.2933 82.1986 53.88C82.1753 55.4433 82.1636 57.0883 82.1636 58.815C82.1636 60.5183 82.1753 62.1983 82.1986 63.855C82.222 65.5117 82.2453 67.0167 82.2686 68.37C82.3153 69.7 82.3503 70.7267 82.3736 71.45H76.2836ZM86.0371 71.52C85.9671 69.4667 85.9088 67.565 85.8621 65.815C85.8388 64.065 85.8271 62.3383 85.8271 60.635C85.8271 58.9317 85.8388 57.2283 85.8621 55.525C85.9088 53.7983 85.9788 51.955 86.0721 49.995H91.9871C91.8938 51.045 91.8121 52.1067 91.7421 53.18C92.5355 52.1767 93.4805 51.3483 94.5771 50.695C95.6738 50.0183 96.9688 49.68 98.4621 49.68C99.9321 49.68 101.134 49.925 102.067 50.415C103.024 50.905 103.77 51.5817 104.307 52.445C104.867 53.3083 105.264 54.3 105.497 55.42C105.754 56.5167 105.917 57.7067 105.987 58.99C106.057 60.25 106.092 61.5217 106.092 62.805C106.092 64.205 106.069 65.5467 106.022 66.83C105.975 68.1133 105.929 69.1867 105.882 70.05C105.835 70.9133 105.8 71.4267 105.777 71.59H99.8971C99.9438 70.6333 99.9905 69.6183 100.037 68.545C100.084 67.4483 100.13 66.375 100.177 65.325C100.224 64.2517 100.247 63.2833 100.247 62.42C100.247 57.45 99.4421 54.965 97.8321 54.965C96.5021 54.965 95.2888 55.5483 94.1921 56.715C93.1188 57.8583 92.2205 59.305 91.4971 61.055C91.4971 61.2883 91.4971 61.5217 91.4971 61.755C91.4971 62.875 91.4971 64.0417 91.4971 65.255C91.5205 66.445 91.5438 67.5883 91.5671 68.685C91.6138 69.7583 91.6488 70.6917 91.6721 71.485L86.0371 71.52ZM117.475 71.555C117.405 69.245 117.37 67.0283 117.37 64.905C117.37 61.0783 117.487 57.6133 117.72 54.51C117.953 51.4067 118.292 48.77 118.735 46.6C118.945 45.5967 119.237 44.6283 119.61 43.695C120.007 42.7617 120.555 42.0033 121.255 41.42C121.978 40.8133 122.923 40.51 124.09 40.51C125.233 40.51 126.202 40.8133 126.995 41.42C127.788 42.0033 128.43 42.715 128.92 43.555C129.433 44.395 129.807 45.2 130.04 45.97C130.647 47.79 131.16 49.61 131.58 51.43C132 53.25 132.373 54.9883 132.7 56.645C132.933 55.4317 133.202 54.16 133.505 52.83C133.808 51.4767 134.112 50.205 134.415 49.015C134.718 47.8017 134.998 46.7983 135.255 46.005C136.445 42.3417 138.277 40.51 140.75 40.51C142.127 40.51 143.293 41.0117 144.25 42.015C145.207 42.995 145.907 44.4183 146.35 46.285C146.56 47.125 146.77 48.35 146.98 49.96C147.213 51.57 147.423 53.4833 147.61 55.7C147.82 57.8933 147.995 60.32 148.135 62.98C148.298 65.64 148.427 68.4633 148.52 71.45L142.36 71.31C142.36 70.0733 142.325 68.6383 142.255 67.005C142.208 65.3717 142.127 63.68 142.01 61.93C141.917 60.1567 141.8 58.43 141.66 56.75C141.543 55.07 141.415 53.5533 141.275 52.2C141.158 50.8467 141.042 49.7733 140.925 48.98C140.808 48.1633 140.703 47.755 140.61 47.755C140.587 47.755 140.458 48.175 140.225 49.015C140.015 49.8317 139.747 50.9283 139.42 52.305C139.117 53.6817 138.778 55.1983 138.405 56.855C138.032 58.5117 137.658 60.18 137.285 61.86C136.935 63.5167 136.62 65.0567 136.34 66.48C136.06 67.88 135.838 69.0233 135.675 69.91L130.18 70.05C129.9 68.7433 129.562 67.3083 129.165 65.745C128.792 64.1583 128.395 62.5483 127.975 60.915C127.578 59.2583 127.182 57.6717 126.785 56.155C126.388 54.615 126.015 53.2383 125.665 52.025C125.338 50.8117 125.07 49.855 124.86 49.155C124.65 48.4317 124.522 48.07 124.475 48.07C124.382 48.07 124.277 48.5833 124.16 49.61C124.067 50.6133 123.973 51.9783 123.88 53.705C123.787 55.4317 123.705 57.38 123.635 59.55C123.588 61.72 123.565 63.96 123.565 66.27C123.565 67.3667 123.565 68.37 123.565 69.28C123.588 70.19 123.612 70.9367 123.635 71.52L117.475 71.555ZM162.431 71.8C160.191 71.8 158.219 71.3567 156.516 70.47C154.836 69.6067 153.517 68.3933 152.561 66.83C151.627 65.2667 151.161 63.4583 151.161 61.405C151.161 60.1683 151.371 58.8733 151.791 57.52C152.211 56.1433 152.887 54.86 153.821 53.67C154.754 52.48 155.979 51.5117 157.496 50.765C159.036 50.0183 160.902 49.645 163.096 49.645C164.682 49.645 166.012 49.82 167.086 50.17C168.182 50.52 169.069 50.975 169.746 51.535C170.446 52.095 170.971 52.69 171.321 53.32C171.694 53.95 171.939 54.5567 172.056 55.14C172.196 55.7 172.266 56.1667 172.266 56.54C172.266 58.8033 171.309 60.5533 169.396 61.79C167.506 63.0033 164.822 63.61 161.346 63.61C160.552 63.61 159.794 63.575 159.071 63.505C158.371 63.435 157.717 63.3533 157.111 63.26C157.554 64.4267 158.289 65.29 159.316 65.85C160.342 66.3867 161.404 66.655 162.501 66.655C164.087 66.655 165.487 66.375 166.701 65.815C167.914 65.2317 169.057 64.345 170.131 63.155L173.246 67.635C172.499 68.2417 171.659 68.8717 170.726 69.525C169.816 70.1783 168.696 70.715 167.366 71.135C166.036 71.5783 164.391 71.8 162.431 71.8ZM163.201 54.895C161.824 54.895 160.611 55.245 159.561 55.945C158.511 56.645 157.741 57.5667 157.251 58.71C157.834 58.8033 158.406 58.885 158.966 58.955C159.549 59.0017 160.121 59.025 160.681 59.025C161.194 59.025 161.777 58.9783 162.431 58.885C163.107 58.7917 163.761 58.6517 164.391 58.465C165.044 58.2783 165.581 58.045 166.001 57.765C166.421 57.4617 166.631 57.1117 166.631 56.715C166.631 56.5283 166.537 56.295 166.351 56.015C166.164 55.735 165.826 55.4783 165.336 55.245C164.846 55.0117 164.134 54.895 163.201 54.895ZM176.237 71.52C176.167 69.4667 176.109 67.565 176.062 65.815C176.039 64.065 176.027 62.3383 176.027 60.635C176.027 58.9317 176.039 57.2283 176.062 55.525C176.109 53.7983 176.179 51.955 176.272 49.995H182.187C182.094 51.045 182.012 52.1067 181.942 53.18C182.736 52.1767 183.681 51.3483 184.777 50.695C185.874 50.0183 187.169 49.68 188.662 49.68C190.132 49.68 191.334 49.925 192.267 50.415C193.224 50.905 193.971 51.5817 194.507 52.445C195.067 53.3083 195.464 54.3 195.697 55.42C195.954 56.5167 196.117 57.7067 196.187 58.99C196.257 60.25 196.292 61.5217 196.292 62.805C196.292 64.205 196.269 65.5467 196.222 66.83C196.176 68.1133 196.129 69.1867 196.082 70.05C196.036 70.9133 196.001 71.4267 195.977 71.59H190.097C190.144 70.6333 190.191 69.6183 190.237 68.545C190.284 67.4483 190.331 66.375 190.377 65.325C190.424 64.2517 190.447 63.2833 190.447 62.42C190.447 57.45 189.642 54.965 188.032 54.965C186.702 54.965 185.489 55.5483 184.392 56.715C183.319 57.8583 182.421 59.305 181.697 61.055C181.697 61.2883 181.697 61.5217 181.697 61.755C181.697 62.875 181.697 64.0417 181.697 65.255C181.721 66.445 181.744 67.5883 181.767 68.685C181.814 69.7583 181.849 70.6917 181.872 71.485L176.237 71.52ZM207.482 71.87C205.989 71.87 204.752 71.6017 203.772 71.065C202.816 70.5517 202.046 69.84 201.462 68.93C200.902 68.02 200.482 67.005 200.202 65.885C199.946 64.7417 199.771 63.5633 199.677 62.35C199.607 61.1133 199.572 59.9233 199.572 58.78C199.572 57.4733 199.607 56.1433 199.677 54.79C199.771 53.4367 199.864 51.955 199.957 50.345L206.362 49.96C206.292 50.45 206.187 51.185 206.047 52.165C205.907 53.145 205.779 54.265 205.662 55.525C205.546 56.785 205.487 58.1033 205.487 59.48C205.487 61.7433 205.686 63.4233 206.082 64.52C206.479 65.5933 207.074 66.13 207.867 66.13C209.454 66.13 210.621 64.975 211.367 62.665C212.114 60.355 212.487 56.7033 212.487 51.71V50.1L215.462 50.03L219.067 49.96C218.741 52.1533 218.496 54.1717 218.332 56.015C218.169 57.8583 218.064 59.41 218.017 60.67C217.971 61.9067 217.947 62.735 217.947 63.155C217.947 64.2283 218.041 64.9983 218.227 65.465C218.414 65.9083 218.741 66.13 219.207 66.13C219.441 66.13 219.697 66.0833 219.977 65.99C220.257 65.8967 220.584 65.7333 220.957 65.5L220.712 71.52C219.826 71.66 219.056 71.73 218.402 71.73C217.282 71.73 216.361 71.52 215.637 71.1C214.937 70.68 214.377 70.12 213.957 69.42C213.234 70.19 212.336 70.785 211.262 71.205C210.212 71.6483 208.952 71.87 207.482 71.87Z" fill="white"/>
</svg>
