<svg width="237" height="108" viewBox="0 0 237 108" fill="none" xmlns="http://www.w3.org/2000/svg">
<rect x="0.5" y="0.5" width="236" height="107" rx="44.5" fill="#8E97A2" fill-opacity="0.67" stroke="black"/>
<path d="M56 73.76C55.92 71.9467 55.88 69.9467 55.88 67.76C55.88 65.6533 55.92 63.4133 56 61.04C56.08 58.6667 56.2 56.2667 56.36 53.84C56.52 51.3867 56.7333 49 57 46.68C56.5733 46.7867 56.16 46.8933 55.76 47C55.3867 47.08 55.04 47.1733 54.72 47.28L52.68 40.92C59.1333 39.4 64.5067 38.64 68.8 38.64C77.52 38.64 81.88 41.96 81.88 48.6C81.88 51.72 80.84 54.2 78.76 56.04C76.68 57.8533 73.6267 59 69.6 59.48C72.0267 61.5333 74.4667 63.2267 76.92 64.56C79.4 65.8667 81.9067 66.9733 84.44 67.88L80.04 73.76C78.6267 73.2533 77.1467 72.5467 75.6 71.64C74.0533 70.7333 72.52 69.7333 71 68.64C69.48 67.5467 68.0267 66.44 66.64 65.32C65.28 64.2 64.0667 63.16 63 62.2C62.9733 64.04 62.9467 65.9067 62.92 67.8C62.92 69.6667 62.92 71.6 62.92 73.6L62.68 73.84C61.6667 73.84 60.5733 73.84 59.4 73.84C58.2533 73.8667 57.2133 73.92 56.28 74L56 73.76ZM68.44 45C67.6933 45 66.92 45.04 66.12 45.12C65.32 45.1733 64.52 45.2533 63.72 45.36C63.6133 46.8533 63.52 48.3333 63.44 49.8C63.36 51.24 63.2933 52.68 63.24 54.12C64.4133 54.0933 65.68 54.0267 67.04 53.92C68.4267 53.7867 69.7333 53.5467 70.96 53.2C72.1867 52.8267 73.1867 52.2933 73.96 51.6C74.76 50.9067 75.16 49.9867 75.16 48.84C75.16 47.5067 74.6133 46.5333 73.52 45.92C72.4267 45.3067 70.7333 45 68.44 45ZM99.8047 74.2C97.2447 74.2 94.9914 73.6933 93.0447 72.68C91.1247 71.6933 89.618 70.3067 88.5247 68.52C87.458 66.7333 86.9247 64.6667 86.9247 62.32C86.9247 60.9067 87.1647 59.4267 87.6447 57.88C88.1247 56.3067 88.898 54.84 89.9647 53.48C91.0314 52.12 92.4314 51.0133 94.1647 50.16C95.9247 49.3067 98.058 48.88 100.565 48.88C102.378 48.88 103.898 49.08 105.125 49.48C106.378 49.88 107.391 50.4 108.165 51.04C108.965 51.68 109.565 52.36 109.965 53.08C110.391 53.8 110.671 54.4933 110.805 55.16C110.965 55.8 111.045 56.3333 111.045 56.76C111.045 59.3467 109.951 61.3467 107.765 62.76C105.605 64.1467 102.538 64.84 98.5647 64.84C97.658 64.84 96.7914 64.8 95.9647 64.72C95.1647 64.64 94.418 64.5467 93.7247 64.44C94.2314 65.7733 95.0714 66.76 96.2447 67.4C97.418 68.0133 98.6314 68.32 99.8847 68.32C101.698 68.32 103.298 68 104.685 67.36C106.071 66.6933 107.378 65.68 108.605 64.32L112.165 69.44C111.311 70.1333 110.351 70.8533 109.285 71.6C108.245 72.3467 106.965 72.96 105.445 73.44C103.925 73.9467 102.045 74.2 99.8047 74.2ZM100.685 54.88C99.1114 54.88 97.7247 55.28 96.5247 56.08C95.3247 56.88 94.4447 57.9333 93.8847 59.24C94.5514 59.3467 95.2047 59.44 95.8447 59.52C96.5114 59.5733 97.1647 59.6 97.8047 59.6C98.3914 59.6 99.058 59.5467 99.8047 59.44C100.578 59.3333 101.325 59.1733 102.045 58.96C102.791 58.7467 103.405 58.48 103.885 58.16C104.365 57.8133 104.605 57.4133 104.605 56.96C104.605 56.7467 104.498 56.48 104.285 56.16C104.071 55.84 103.685 55.5467 103.125 55.28C102.565 55.0133 101.751 54.88 100.685 54.88ZM127.264 74.16C125.664 74.16 124.397 73.8133 123.464 73.12C122.53 72.4533 121.85 71.52 121.424 70.32C120.997 69.12 120.717 67.7467 120.584 66.2C120.477 64.6533 120.424 63.0267 120.424 61.32C120.424 59.56 120.49 57.7333 120.624 55.84C118.837 56.08 117.117 56.3867 115.464 56.76L114.224 50.48C116.437 49.8933 118.797 49.4667 121.304 49.2C121.49 47.84 121.69 46.4133 121.904 44.92C122.117 43.4 122.357 41.8 122.624 40.12L129.504 40.72C129.184 42.1067 128.904 43.4933 128.664 44.88C128.424 46.24 128.21 47.56 128.024 48.84C129.517 48.84 130.917 48.88 132.224 48.96C133.557 49.0133 134.784 49.12 135.904 49.28L135.104 55.56C134.17 55.4533 133.197 55.3867 132.184 55.36C131.197 55.3067 130.197 55.28 129.184 55.28C128.57 55.28 127.957 55.2933 127.344 55.32C127.184 57.2667 127.077 58.9333 127.024 60.32C126.997 61.7067 126.984 62.6933 126.984 63.28C126.984 64.7467 127.064 65.8 127.224 66.44C127.41 67.08 127.704 67.4 128.104 67.4C128.557 67.4 129.064 67.2533 129.624 66.96C130.184 66.64 130.73 66.2133 131.264 65.68C131.824 65.1467 132.29 64.5733 132.664 63.96L135.744 70.4C133.104 72.9067 130.277 74.16 127.264 74.16ZM138.58 74.12C138.687 71.9067 138.767 69.6933 138.82 67.48C138.874 65.2667 138.9 63.08 138.9 60.92C138.874 58.9467 138.834 57 138.78 55.08C138.754 53.1333 138.687 51.2533 138.58 49.44L145.3 49.24C145.327 50.2267 145.367 51.24 145.42 52.28C146.274 51.2133 147.26 50.36 148.38 49.72C149.527 49.0533 150.834 48.72 152.3 48.72C152.86 48.72 153.58 48.8 154.46 48.96C155.34 49.12 156.234 49.4267 157.14 49.88L156.38 56.64C155.714 56.24 154.994 55.96 154.22 55.8C153.474 55.6133 152.847 55.52 152.34 55.52C150.634 55.52 149.18 56.2933 147.98 57.84C146.807 59.36 146.007 61.48 145.58 64.2C145.58 66.0667 145.554 67.8533 145.5 69.56C145.474 71.24 145.407 72.76 145.3 74.12H138.58ZM165.179 81.84L159.179 78.64C160.673 76.9867 162.126 75.28 163.539 73.52C164.953 71.7867 166.299 70 167.579 68.16C166.326 66.48 165.073 64.68 163.819 62.76C162.566 60.8133 161.406 58.9067 160.339 57.04C159.273 55.1733 158.406 53.5067 157.739 52.04L164.139 49.24C164.619 50.52 165.233 51.9067 165.979 53.4C166.753 54.8933 167.593 56.4133 168.499 57.96C169.433 59.5067 170.393 60.9867 171.379 62.4C174.259 57.7333 176.633 53.1333 178.499 48.6L185.139 51.24C183.939 53.5333 182.579 56 181.059 58.64C179.566 61.2533 177.953 63.92 176.219 66.64C174.513 69.3333 172.726 71.9733 170.859 74.56C168.993 77.1733 167.099 79.6 165.179 81.84Z" fill="white"/>
</svg>
