<svg width="608" height="443" viewBox="0 0 608 443" fill="none" xmlns="http://www.w3.org/2000/svg">
<g opacity="0.6">
<rect y="1.59782" width="606.841" height="441.151" rx="80" transform="rotate(-0.150861 0 1.59782)" fill="url(#paint0_linear_6_6)"/>
<rect x="1.50394" y="3.09387" width="603.841" height="438.151" rx="78.5" transform="rotate(-0.150861 1.50394 3.09387)" stroke="#0F0909" stroke-opacity="0.23" stroke-width="3"/>
</g>
<path d="M114.376 72.6537C111.208 72.6537 108.696 72.3817 106.84 71.8377C104.984 71.2937 103.608 70.5257 102.712 69.5337C101.816 68.5737 101.224 67.4377 100.936 66.1257C100.68 64.7817 100.552 63.3417 100.552 61.8057C100.552 59.2457 100.616 56.3177 100.744 53.0217C100.904 49.7257 101.096 46.1897 101.32 42.4137C101.576 38.6057 101.848 34.6697 102.136 30.6057L110.872 31.4697C110.552 33.9337 110.264 36.4617 110.008 39.0537C109.784 41.6137 109.592 44.1097 109.432 46.5417C109.272 48.9737 109.144 51.1817 109.048 53.1657C108.952 55.1497 108.872 56.8137 108.808 58.1577C108.776 59.4697 108.76 60.3177 108.76 60.7017C108.76 61.8217 108.888 62.6697 109.144 63.2457C109.4 63.7897 109.912 64.1577 110.68 64.3497C111.448 64.5417 112.568 64.6377 114.04 64.6377C115.896 64.6377 117.992 64.5257 120.328 64.3017C122.664 64.0457 125.032 63.6777 127.432 63.1977C129.832 62.7177 132.024 62.1417 134.008 61.4697L135.88 69.7257C133.704 70.2697 131.352 70.7657 128.824 71.2137C126.328 71.6617 123.832 72.0137 121.336 72.2697C118.84 72.5257 116.52 72.6537 114.376 72.6537ZM153.644 72.9897C150.572 72.9897 147.868 72.3817 145.532 71.1657C143.228 69.9817 141.42 68.3177 140.108 66.1737C138.828 64.0297 138.188 61.5497 138.188 58.7337C138.188 57.0377 138.476 55.2617 139.052 53.4057C139.628 51.5177 140.556 49.7577 141.836 48.1257C143.116 46.4937 144.796 45.1657 146.876 44.1417C148.988 43.1177 151.548 42.6057 154.556 42.6057C156.732 42.6057 158.556 42.8457 160.028 43.3257C161.532 43.8057 162.748 44.4297 163.676 45.1977C164.636 45.9657 165.356 46.7817 165.836 47.6457C166.348 48.5097 166.684 49.3417 166.844 50.1417C167.036 50.9097 167.132 51.5497 167.132 52.0617C167.132 55.1657 165.82 57.5657 163.196 59.2617C160.604 60.9257 156.924 61.7577 152.156 61.7577C151.068 61.7577 150.028 61.7097 149.036 61.6137C148.076 61.5177 147.18 61.4057 146.348 61.2777C146.956 62.8777 147.964 64.0617 149.372 64.8297C150.78 65.5657 152.236 65.9337 153.74 65.9337C155.916 65.9337 157.836 65.5497 159.5 64.7817C161.164 63.9817 162.732 62.7657 164.204 61.1337L168.476 67.2777C167.452 68.1097 166.3 68.9737 165.02 69.8697C163.772 70.7657 162.236 71.5017 160.412 72.0777C158.588 72.6857 156.332 72.9897 153.644 72.9897ZM154.7 49.8057C152.812 49.8057 151.148 50.2857 149.708 51.2457C148.268 52.2057 147.212 53.4697 146.54 55.0377C147.34 55.1657 148.124 55.2777 148.892 55.3737C149.692 55.4377 150.476 55.4697 151.244 55.4697C151.948 55.4697 152.748 55.4057 153.644 55.2777C154.572 55.1497 155.468 54.9577 156.332 54.7017C157.228 54.4457 157.964 54.1257 158.54 53.7417C159.116 53.3257 159.404 52.8457 159.404 52.3017C159.404 52.0457 159.276 51.7257 159.02 51.3417C158.764 50.9577 158.3 50.6057 157.628 50.2857C156.956 49.9657 155.98 49.8057 154.7 49.8057ZM185.971 72.8937C184.659 72.8937 183.523 72.5097 182.563 71.7417C181.603 70.9737 180.771 70.0297 180.067 68.9097C179.363 67.7897 178.739 66.7017 178.195 65.6457C177.203 63.6297 176.259 61.4217 175.363 59.0217C174.467 56.6217 173.683 54.1257 173.011 51.5337C172.339 48.9417 171.827 46.3817 171.475 43.8537L180.163 42.6057C180.419 45.5817 180.819 48.3817 181.363 51.0057C181.907 53.6297 182.547 55.9657 183.283 58.0137C184.019 60.0617 184.771 61.7257 185.539 63.0057C185.699 63.2297 185.843 63.4537 185.971 63.6777C186.131 63.9017 186.211 64.0137 186.211 64.0137C186.275 64.0137 186.531 63.6777 186.979 63.0057C188.387 60.5417 189.699 57.6617 190.915 54.3657C192.131 51.0697 193.187 47.0857 194.083 42.4137L202.531 44.0937C201.699 47.1017 200.931 49.7257 200.227 51.9657C199.523 54.1737 198.835 56.1097 198.163 57.7737C197.491 59.4377 196.819 60.9417 196.147 62.2857C195.475 63.5977 194.771 64.8777 194.035 66.1257C193.555 66.9897 192.931 67.9497 192.163 69.0057C191.427 70.0617 190.547 70.9737 189.523 71.7417C188.499 72.5097 187.315 72.8937 185.971 72.8937ZM220.909 72.9897C217.837 72.9897 215.133 72.3817 212.797 71.1657C210.493 69.9817 208.685 68.3177 207.373 66.1737C206.093 64.0297 205.453 61.5497 205.453 58.7337C205.453 57.0377 205.741 55.2617 206.317 53.4057C206.893 51.5177 207.821 49.7577 209.101 48.1257C210.381 46.4937 212.061 45.1657 214.141 44.1417C216.253 43.1177 218.813 42.6057 221.821 42.6057C223.997 42.6057 225.821 42.8457 227.293 43.3257C228.797 43.8057 230.013 44.4297 230.941 45.1977C231.901 45.9657 232.621 46.7817 233.101 47.6457C233.613 48.5097 233.949 49.3417 234.109 50.1417C234.301 50.9097 234.397 51.5497 234.397 52.0617C234.397 55.1657 233.085 57.5657 230.461 59.2617C227.869 60.9257 224.189 61.7577 219.421 61.7577C218.333 61.7577 217.293 61.7097 216.301 61.6137C215.341 61.5177 214.445 61.4057 213.613 61.2777C214.221 62.8777 215.229 64.0617 216.637 64.8297C218.045 65.5657 219.501 65.9337 221.005 65.9337C223.181 65.9337 225.101 65.5497 226.765 64.7817C228.429 63.9817 229.997 62.7657 231.469 61.1337L235.741 67.2777C234.717 68.1097 233.565 68.9737 232.285 69.8697C231.037 70.7657 229.501 71.5017 227.677 72.0777C225.853 72.6857 223.597 72.9897 220.909 72.9897ZM221.965 49.8057C220.077 49.8057 218.413 50.2857 216.973 51.2457C215.533 52.2057 214.477 53.4697 213.805 55.0377C214.605 55.1657 215.389 55.2777 216.157 55.3737C216.957 55.4377 217.741 55.4697 218.509 55.4697C219.213 55.4697 220.013 55.4057 220.909 55.2777C221.837 55.1497 222.733 54.9577 223.597 54.7017C224.493 54.4457 225.229 54.1257 225.805 53.7417C226.381 53.3257 226.669 52.8457 226.669 52.3017C226.669 52.0457 226.541 51.7257 226.285 51.3417C226.029 50.9577 225.565 50.6057 224.893 50.2857C224.221 49.9657 223.245 49.8057 221.965 49.8057ZM248.82 72.9417C247.06 72.9417 245.604 72.5577 244.452 71.7897C243.332 71.0537 242.436 70.0297 241.764 68.7177C241.124 67.4057 240.644 65.9017 240.324 64.2057C240.036 62.5097 239.844 60.7017 239.748 58.7817C239.684 56.8297 239.652 54.8777 239.652 52.9257C239.652 51.2297 239.7 49.3737 239.796 47.3577C239.892 45.3097 240.004 43.2457 240.132 41.1657C240.292 39.0537 240.452 37.0697 240.612 35.2137C240.804 33.3577 240.98 31.7417 241.14 30.3657L249.828 30.4617C249.572 32.0937 249.332 33.9497 249.108 36.0297C248.884 38.0777 248.692 40.1577 248.532 42.2697C248.404 44.3817 248.292 46.3337 248.196 48.1257C248.132 49.9177 248.1 51.3417 248.1 52.3977C248.1 55.3097 248.148 57.5977 248.244 59.2617C248.372 60.9257 248.548 62.1097 248.772 62.8137C249.028 63.4857 249.364 63.8217 249.78 63.8217C250.324 63.8217 250.916 63.4857 251.556 62.8137C252.196 62.1097 252.82 61.3257 253.428 60.4617L257.508 68.5737C256.516 69.6617 255.332 70.6537 253.956 71.5497C252.58 72.4777 250.868 72.9417 248.82 72.9417ZM291.513 72.9897C287.609 72.9897 284.217 72.1257 281.337 70.3977C278.457 68.7017 276.233 66.3017 274.665 63.1977C273.097 60.0937 272.313 56.4297 272.313 52.2057C272.313 50.6057 272.505 48.8297 272.889 46.8777C273.305 44.8937 273.961 42.9257 274.857 40.9737C275.753 38.9897 276.953 37.1817 278.457 35.5497C279.961 33.9177 281.801 32.6057 283.977 31.6137C286.153 30.5897 288.713 30.0777 291.657 30.0777C294.185 30.0777 296.393 30.3977 298.281 31.0377C300.169 31.6457 301.801 32.4297 303.177 33.3897C304.553 34.3177 305.689 35.2937 306.585 36.3177C307.513 37.3417 308.249 38.2857 308.793 39.1497C309.337 39.9817 309.737 40.5897 309.993 40.9737L303.033 46.3017C302.329 44.9897 301.497 43.7097 300.537 42.4617C299.577 41.1817 298.393 40.1257 296.985 39.2937C295.577 38.4617 293.833 38.0457 291.753 38.0457C289.609 38.0457 287.833 38.5257 286.425 39.4857C285.017 40.4457 283.897 41.6617 283.065 43.1337C282.265 44.6057 281.705 46.1737 281.385 47.8377C281.065 49.4697 280.905 50.9897 280.905 52.3977C280.905 53.9017 281.065 55.3897 281.385 56.8617C281.705 58.3337 282.249 59.6777 283.017 60.8937C283.817 62.1097 284.873 63.0857 286.185 63.8217C287.529 64.5257 289.209 64.8777 291.225 64.8777C293.465 64.8777 295.289 64.4777 296.697 63.6777C298.137 62.8777 299.337 61.7577 300.297 60.3177C301.257 58.8457 302.153 57.1337 302.985 55.1817L310.857 58.7337C309.449 61.6457 307.865 64.1737 306.105 66.3177C304.345 68.4617 302.281 70.1097 299.913 71.2617C297.545 72.4137 294.745 72.9897 291.513 72.9897ZM324.758 72.9417C322.998 72.9417 321.542 72.5577 320.39 71.7897C319.27 71.0537 318.374 70.0297 317.702 68.7177C317.062 67.4057 316.582 65.9017 316.262 64.2057C315.974 62.5097 315.782 60.7017 315.686 58.7817C315.622 56.8297 315.59 54.8777 315.59 52.9257C315.59 51.2297 315.638 49.3737 315.734 47.3577C315.83 45.3097 315.942 43.2457 316.07 41.1657C316.23 39.0537 316.39 37.0697 316.55 35.2137C316.742 33.3577 316.918 31.7417 317.078 30.3657L325.766 30.4617C325.51 32.0937 325.27 33.9497 325.046 36.0297C324.822 38.0777 324.63 40.1577 324.47 42.2697C324.342 44.3817 324.23 46.3337 324.134 48.1257C324.07 49.9177 324.038 51.3417 324.038 52.3977C324.038 55.3097 324.086 57.5977 324.182 59.2617C324.31 60.9257 324.486 62.1097 324.71 62.8137C324.966 63.4857 325.302 63.8217 325.718 63.8217C326.262 63.8217 326.854 63.4857 327.494 62.8137C328.134 62.1097 328.758 61.3257 329.366 60.4617L333.446 68.5737C332.454 69.6617 331.27 70.6537 329.894 71.5497C328.518 72.4777 326.806 72.9417 324.758 72.9417ZM352.066 72.9897C348.994 72.9897 346.29 72.3817 343.954 71.1657C341.65 69.9817 339.842 68.3177 338.53 66.1737C337.25 64.0297 336.61 61.5497 336.61 58.7337C336.61 57.0377 336.898 55.2617 337.474 53.4057C338.05 51.5177 338.978 49.7577 340.258 48.1257C341.538 46.4937 343.218 45.1657 345.298 44.1417C347.41 43.1177 349.97 42.6057 352.978 42.6057C355.154 42.6057 356.978 42.8457 358.45 43.3257C359.954 43.8057 361.17 44.4297 362.098 45.1977C363.058 45.9657 363.778 46.7817 364.258 47.6457C364.77 48.5097 365.106 49.3417 365.266 50.1417C365.458 50.9097 365.554 51.5497 365.554 52.0617C365.554 55.1657 364.242 57.5657 361.618 59.2617C359.026 60.9257 355.346 61.7577 350.578 61.7577C349.49 61.7577 348.45 61.7097 347.458 61.6137C346.498 61.5177 345.602 61.4057 344.77 61.2777C345.378 62.8777 346.386 64.0617 347.794 64.8297C349.202 65.5657 350.658 65.9337 352.162 65.9337C354.338 65.9337 356.258 65.5497 357.922 64.7817C359.586 63.9817 361.154 62.7657 362.626 61.1337L366.898 67.2777C365.874 68.1097 364.722 68.9737 363.442 69.8697C362.194 70.7657 360.658 71.5017 358.834 72.0777C357.01 72.6857 354.754 72.9897 352.066 72.9897ZM353.122 49.8057C351.234 49.8057 349.57 50.2857 348.13 51.2457C346.69 52.2057 345.634 53.4697 344.962 55.0377C345.762 55.1657 346.546 55.2777 347.314 55.3737C348.114 55.4377 348.898 55.4697 349.666 55.4697C350.37 55.4697 351.17 55.4057 352.066 55.2777C352.994 55.1497 353.89 54.9577 354.754 54.7017C355.65 54.4457 356.386 54.1257 356.962 53.7417C357.538 53.3257 357.826 52.8457 357.826 52.3017C357.826 52.0457 357.698 51.7257 357.442 51.3417C357.186 50.9577 356.722 50.6057 356.05 50.2857C355.378 49.9657 354.402 49.8057 353.122 49.8057ZM382.665 72.9417C380.265 72.9417 378.089 72.3177 376.137 71.0697C374.185 69.8537 372.633 68.2057 371.48 66.1257C370.361 64.0137 369.801 61.6617 369.801 59.0697C369.801 56.6377 370.249 54.4457 371.145 52.4937C372.041 50.5097 373.257 48.8137 374.793 47.4057C376.361 45.9977 378.137 44.9257 380.121 44.1897C382.105 43.4217 384.185 43.0377 386.361 43.0377C388.185 43.0377 389.977 43.2937 391.737 43.8057C391.865 43.1337 391.977 42.4617 392.073 41.7897L400.281 43.1817C400.057 43.7897 399.833 44.7017 399.609 45.9177C399.385 47.1337 399.193 48.4937 399.033 49.9977C398.905 51.5017 398.793 53.0057 398.697 54.5097C398.601 56.0137 398.553 57.3737 398.553 58.5897C398.553 59.5817 398.617 60.5577 398.745 61.5177C398.905 62.4457 399.225 63.2137 399.705 63.8217C400.185 64.3977 400.921 64.6857 401.913 64.6857H402.585L401.385 73.0377C399.273 73.0377 397.529 72.6697 396.153 71.9337C394.777 71.2297 393.673 70.2697 392.841 69.0537C391.465 70.5897 389.897 71.6137 388.137 72.1257C386.377 72.6697 384.553 72.9417 382.665 72.9417ZM377.673 60.0297C377.833 61.5657 378.457 62.7977 379.545 63.7257C380.665 64.6217 382.073 65.0697 383.769 65.0697C385.401 65.0697 386.761 64.6377 387.849 63.7737C388.937 62.8777 389.833 61.6617 390.537 60.1257C390.505 59.6137 390.489 59.0857 390.489 58.5417C390.489 57.4217 390.521 56.2697 390.585 55.0857C390.649 53.9017 390.729 52.7337 390.825 51.5817C389.481 51.0697 388.073 50.8137 386.601 50.8137C384.873 50.8137 383.321 51.1657 381.945 51.8697C380.601 52.5417 379.545 53.4857 378.777 54.7017C378.009 55.9177 377.625 57.3257 377.625 58.9257C377.625 59.1177 377.625 59.3097 377.625 59.5017C377.625 59.6937 377.641 59.8697 377.673 60.0297ZM405.393 72.8937C405.521 70.2377 405.617 67.5817 405.681 64.9257C405.745 62.2697 405.777 59.6457 405.777 57.0537C405.745 54.6857 405.697 52.3497 405.633 50.0457C405.601 47.7097 405.521 45.4537 405.393 43.2777L413.457 43.0377C413.489 44.2217 413.537 45.4377 413.601 46.6857C414.625 45.4057 415.809 44.3817 417.153 43.6137C418.529 42.8137 420.097 42.4137 421.857 42.4137C422.529 42.4137 423.393 42.5097 424.449 42.7017C425.505 42.8937 426.577 43.2617 427.665 43.8057L426.753 51.9177C425.953 51.4377 425.089 51.1017 424.161 50.9097C423.265 50.6857 422.513 50.5737 421.905 50.5737C419.857 50.5737 418.113 51.5017 416.673 53.3577C415.265 55.1817 414.305 57.7257 413.793 60.9897C413.793 63.2297 413.761 65.3737 413.697 67.4217C413.665 69.4377 413.585 71.2617 413.457 72.8937H405.393ZM444.128 72.9897C441.056 72.9897 438.352 72.3817 436.016 71.1657C433.712 69.9817 431.904 68.3177 430.592 66.1737C429.312 64.0297 428.672 61.5497 428.672 58.7337C428.672 57.0377 428.96 55.2617 429.536 53.4057C430.112 51.5177 431.04 49.7577 432.32 48.1257C433.6 46.4937 435.28 45.1657 437.36 44.1417C439.472 43.1177 442.032 42.6057 445.04 42.6057C447.216 42.6057 449.04 42.8457 450.512 43.3257C452.016 43.8057 453.232 44.4297 454.16 45.1977C455.12 45.9657 455.84 46.7817 456.32 47.6457C456.832 48.5097 457.168 49.3417 457.328 50.1417C457.52 50.9097 457.616 51.5497 457.616 52.0617C457.616 55.1657 456.304 57.5657 453.68 59.2617C451.088 60.9257 447.408 61.7577 442.64 61.7577C441.552 61.7577 440.512 61.7097 439.52 61.6137C438.56 61.5177 437.664 61.4057 436.832 61.2777C437.44 62.8777 438.448 64.0617 439.856 64.8297C441.264 65.5657 442.72 65.9337 444.224 65.9337C446.4 65.9337 448.32 65.5497 449.984 64.7817C451.648 63.9817 453.216 62.7657 454.688 61.1337L458.96 67.2777C457.936 68.1097 456.784 68.9737 455.504 69.8697C454.256 70.7657 452.72 71.5017 450.896 72.0777C449.072 72.6857 446.816 72.9897 444.128 72.9897ZM445.184 49.8057C443.296 49.8057 441.632 50.2857 440.192 51.2457C438.752 52.2057 437.696 53.4697 437.024 55.0377C437.824 55.1657 438.608 55.2777 439.376 55.3737C440.176 55.4377 440.96 55.4697 441.728 55.4697C442.432 55.4697 443.232 55.4057 444.128 55.2777C445.056 55.1497 445.952 54.9577 446.816 54.7017C447.712 54.4457 448.448 54.1257 449.024 53.7417C449.6 53.3257 449.888 52.8457 449.888 52.3017C449.888 52.0457 449.76 51.7257 449.504 51.3417C449.248 50.9577 448.784 50.6057 448.112 50.2857C447.44 49.9657 446.464 49.8057 445.184 49.8057ZM474.775 72.9417C473.111 72.9417 471.479 72.6537 469.879 72.0777C468.311 71.5017 466.887 70.6057 465.607 69.3897C464.359 68.2057 463.367 66.7177 462.631 64.9257C461.895 63.1017 461.527 60.9737 461.527 58.5417C461.527 55.7897 461.943 53.4217 462.775 51.4377C463.639 49.4217 464.775 47.7737 466.183 46.4937C467.591 45.1817 469.159 44.2057 470.887 43.5657C472.615 42.9257 474.343 42.6057 476.071 42.6057C477.095 42.6057 478.071 42.6857 478.999 42.8457C479.927 42.9737 480.791 43.1657 481.591 43.4217C481.687 41.0857 481.799 38.7337 481.927 36.3657C482.087 33.9977 482.263 31.6617 482.455 29.3577L490.519 29.8857C490.263 32.5417 490.039 35.4057 489.847 38.4777C489.655 41.5177 489.511 44.6217 489.415 47.7897C489.351 50.9577 489.319 54.0457 489.319 57.0537C489.319 59.8697 489.351 62.5577 489.415 65.1177C489.511 67.6457 489.623 69.9497 489.751 72.0297L481.447 72.6537C481.415 72.0457 481.399 71.4537 481.399 70.8777C480.471 71.4857 479.447 71.9817 478.327 72.3657C477.239 72.7497 476.055 72.9417 474.775 72.9417ZM469.255 58.1097C469.255 59.7737 469.575 61.0857 470.215 62.0457C470.855 62.9737 471.639 63.6297 472.567 64.0137C473.495 64.3977 474.391 64.5897 475.255 64.5897C476.279 64.5897 477.303 64.3657 478.327 63.9177C479.351 63.4697 480.311 62.6857 481.207 61.5657C481.207 61.1817 481.207 60.8137 481.207 60.4617C481.207 57.8697 481.239 55.2137 481.303 52.4937C479.799 51.1817 478.167 50.5257 476.407 50.5257C475.671 50.5257 474.887 50.6377 474.055 50.8617C473.223 51.0857 472.439 51.4857 471.703 52.0617C470.999 52.6057 470.407 53.3737 469.927 54.3657C469.479 55.3257 469.255 56.5737 469.255 58.1097ZM498.447 29.9337L506.031 30.3177C505.935 31.5017 505.823 33.0057 505.695 34.8297C505.599 36.6217 505.503 38.6057 505.407 40.7817C505.311 42.9257 505.215 45.1017 505.119 47.3097C505.023 49.5177 504.943 51.6297 504.879 53.6457C504.847 55.6297 504.831 57.3737 504.831 58.8777C504.831 59.2937 504.831 59.6937 504.831 60.0777C504.831 60.4617 504.847 60.7977 504.879 61.0857L497.343 60.8937C497.311 60.3497 497.295 59.7417 497.295 59.0697C497.295 58.3657 497.295 57.5977 497.295 56.7657C497.295 54.1417 497.327 51.2777 497.391 48.1737C497.487 45.0697 497.615 41.9497 497.775 38.8137C497.967 35.6457 498.191 32.6857 498.447 29.9337ZM500.895 73.1337C499.647 73.1337 498.591 72.6857 497.727 71.7897C496.895 70.9257 496.479 69.8537 496.479 68.5737C496.479 67.2937 496.911 66.2217 497.775 65.3577C498.671 64.4937 499.759 64.0617 501.039 64.0617C502.287 64.0617 503.327 64.5097 504.159 65.4057C505.023 66.3017 505.455 67.4217 505.455 68.7657C505.455 70.0777 505.039 71.1337 504.207 71.9337C503.375 72.7337 502.271 73.1337 500.895 73.1337Z" fill="white"/>
<rect x="185.5" y="312.65" width="236" height="107" rx="44.5" fill="#7DAFEA" fill-opacity="0.67" stroke="black"/>
<path d="M201.645 383.705C201.575 381.395 201.54 379.178 201.54 377.055C201.54 373.228 201.657 369.763 201.89 366.66C202.123 363.556 202.462 360.92 202.905 358.75C203.115 357.746 203.407 356.778 203.78 355.845C204.177 354.911 204.725 354.153 205.425 353.57C206.148 352.963 207.093 352.66 208.26 352.66C209.403 352.66 210.372 352.963 211.165 353.57C211.958 354.153 212.6 354.865 213.09 355.705C213.603 356.545 213.977 357.35 214.21 358.12C214.817 359.94 215.33 361.76 215.75 363.58C216.17 365.4 216.543 367.138 216.87 368.795C217.103 367.581 217.372 366.31 217.675 364.98C217.978 363.626 218.282 362.355 218.585 361.165C218.888 359.951 219.168 358.948 219.425 358.155C220.615 354.491 222.447 352.66 224.92 352.66C226.297 352.66 227.463 353.161 228.42 354.165C229.377 355.145 230.077 356.568 230.52 358.435C230.73 359.275 230.94 360.5 231.15 362.11C231.383 363.72 231.593 365.633 231.78 367.85C231.99 370.043 232.165 372.47 232.305 375.13C232.468 377.79 232.597 380.613 232.69 383.6L226.53 383.46C226.53 382.223 226.495 380.788 226.425 379.155C226.378 377.521 226.297 375.83 226.18 374.08C226.087 372.306 225.97 370.58 225.83 368.9C225.713 367.22 225.585 365.703 225.445 364.35C225.328 362.996 225.212 361.923 225.095 361.13C224.978 360.313 224.873 359.905 224.78 359.905C224.757 359.905 224.628 360.325 224.395 361.165C224.185 361.981 223.917 363.078 223.59 364.455C223.287 365.831 222.948 367.348 222.575 369.005C222.202 370.661 221.828 372.33 221.455 374.01C221.105 375.666 220.79 377.206 220.51 378.63C220.23 380.03 220.008 381.173 219.845 382.06L214.35 382.2C214.07 380.893 213.732 379.458 213.335 377.895C212.962 376.308 212.565 374.698 212.145 373.065C211.748 371.408 211.352 369.821 210.955 368.305C210.558 366.765 210.185 365.388 209.835 364.175C209.508 362.961 209.24 362.005 209.03 361.305C208.82 360.581 208.692 360.22 208.645 360.22C208.552 360.22 208.447 360.733 208.33 361.76C208.237 362.763 208.143 364.128 208.05 365.855C207.957 367.581 207.875 369.53 207.805 371.7C207.758 373.87 207.735 376.11 207.735 378.42C207.735 379.516 207.735 380.52 207.735 381.43C207.758 382.34 207.782 383.086 207.805 383.67L201.645 383.705ZM244.816 383.915C243.066 383.915 241.479 383.46 240.056 382.55C238.632 381.663 237.501 380.461 236.661 378.945C235.844 377.405 235.436 375.69 235.436 373.8C235.436 372.026 235.762 370.428 236.416 369.005C237.069 367.558 237.956 366.321 239.076 365.295C240.219 364.268 241.514 363.486 242.961 362.95C244.407 362.39 245.924 362.11 247.511 362.11C248.841 362.11 250.147 362.296 251.431 362.67C251.524 362.18 251.606 361.69 251.676 361.2L257.661 362.215C257.497 362.658 257.334 363.323 257.171 364.21C257.007 365.096 256.867 366.088 256.751 367.185C256.657 368.281 256.576 369.378 256.506 370.475C256.436 371.571 256.401 372.563 256.401 373.45C256.401 374.173 256.447 374.885 256.541 375.585C256.657 376.261 256.891 376.821 257.241 377.265C257.591 377.685 258.127 377.895 258.851 377.895H259.341L258.466 383.985C256.926 383.985 255.654 383.716 254.651 383.18C253.647 382.666 252.842 381.966 252.236 381.08C251.232 382.2 250.089 382.946 248.806 383.32C247.522 383.716 246.192 383.915 244.816 383.915ZM241.176 374.5C241.292 375.62 241.747 376.518 242.541 377.195C243.357 377.848 244.384 378.175 245.621 378.175C246.811 378.175 247.802 377.86 248.596 377.23C249.389 376.576 250.042 375.69 250.556 374.57C250.532 374.196 250.521 373.811 250.521 373.415C250.521 372.598 250.544 371.758 250.591 370.895C250.637 370.031 250.696 369.18 250.766 368.34C249.786 367.966 248.759 367.78 247.686 367.78C246.426 367.78 245.294 368.036 244.291 368.55C243.311 369.04 242.541 369.728 241.981 370.615C241.421 371.501 241.141 372.528 241.141 373.695C241.141 373.835 241.141 373.975 241.141 374.115C241.141 374.255 241.152 374.383 241.176 374.5ZM261.424 358.54C261.424 358.33 261.412 358.12 261.389 357.91C261.389 357.676 261.389 357.42 261.389 357.14C261.389 356.393 261.412 355.6 261.459 354.76C261.505 353.92 261.552 353.208 261.599 352.625L267.829 352.73C267.759 353.523 267.677 354.421 267.584 355.425C267.514 356.428 267.467 357.466 267.444 358.54H261.424ZM261.284 383.6C261.214 382.153 261.167 380.613 261.144 378.98C261.12 377.323 261.109 375.666 261.109 374.01C261.109 371.84 261.132 369.728 261.179 367.675C261.225 365.621 261.284 363.755 261.354 362.075L267.374 362.04C267.28 363.113 267.222 364.443 267.199 366.03C267.175 367.593 267.164 369.238 267.164 370.965C267.164 372.668 267.175 374.348 267.199 376.005C267.222 377.661 267.245 379.166 267.269 380.52C267.315 381.85 267.35 382.876 267.374 383.6H261.284ZM271.037 383.67C270.967 381.616 270.909 379.715 270.862 377.965C270.839 376.215 270.827 374.488 270.827 372.785C270.827 371.081 270.839 369.378 270.862 367.675C270.909 365.948 270.979 364.105 271.072 362.145H276.987C276.894 363.195 276.812 364.256 276.742 365.33C277.535 364.326 278.48 363.498 279.577 362.845C280.674 362.168 281.969 361.83 283.462 361.83C284.932 361.83 286.134 362.075 287.067 362.565C288.024 363.055 288.77 363.731 289.307 364.595C289.867 365.458 290.264 366.45 290.497 367.57C290.754 368.666 290.917 369.856 290.987 371.14C291.057 372.4 291.092 373.671 291.092 374.955C291.092 376.355 291.069 377.696 291.022 378.98C290.975 380.263 290.929 381.336 290.882 382.2C290.835 383.063 290.8 383.576 290.777 383.74H284.897C284.944 382.783 284.99 381.768 285.037 380.695C285.084 379.598 285.13 378.525 285.177 377.475C285.224 376.401 285.247 375.433 285.247 374.57C285.247 369.6 284.442 367.115 282.832 367.115C281.502 367.115 280.289 367.698 279.192 368.865C278.119 370.008 277.22 371.455 276.497 373.205C276.497 373.438 276.497 373.671 276.497 373.905C276.497 375.025 276.497 376.191 276.497 377.405C276.52 378.595 276.544 379.738 276.567 380.835C276.614 381.908 276.649 382.841 276.672 383.635L271.037 383.67ZM302.475 383.705C302.405 381.395 302.37 379.178 302.37 377.055C302.37 373.228 302.487 369.763 302.72 366.66C302.953 363.556 303.292 360.92 303.735 358.75C303.945 357.746 304.237 356.778 304.61 355.845C305.007 354.911 305.555 354.153 306.255 353.57C306.978 352.963 307.923 352.66 309.09 352.66C310.233 352.66 311.202 352.963 311.995 353.57C312.788 354.153 313.43 354.865 313.92 355.705C314.433 356.545 314.807 357.35 315.04 358.12C315.647 359.94 316.16 361.76 316.58 363.58C317 365.4 317.373 367.138 317.7 368.795C317.933 367.581 318.202 366.31 318.505 364.98C318.808 363.626 319.112 362.355 319.415 361.165C319.718 359.951 319.998 358.948 320.255 358.155C321.445 354.491 323.277 352.66 325.75 352.66C327.127 352.66 328.293 353.161 329.25 354.165C330.207 355.145 330.907 356.568 331.35 358.435C331.56 359.275 331.77 360.5 331.98 362.11C332.213 363.72 332.423 365.633 332.61 367.85C332.82 370.043 332.995 372.47 333.135 375.13C333.298 377.79 333.427 380.613 333.52 383.6L327.36 383.46C327.36 382.223 327.325 380.788 327.255 379.155C327.208 377.521 327.127 375.83 327.01 374.08C326.917 372.306 326.8 370.58 326.66 368.9C326.543 367.22 326.415 365.703 326.275 364.35C326.158 362.996 326.042 361.923 325.925 361.13C325.808 360.313 325.703 359.905 325.61 359.905C325.587 359.905 325.458 360.325 325.225 361.165C325.015 361.981 324.747 363.078 324.42 364.455C324.117 365.831 323.778 367.348 323.405 369.005C323.032 370.661 322.658 372.33 322.285 374.01C321.935 375.666 321.62 377.206 321.34 378.63C321.06 380.03 320.838 381.173 320.675 382.06L315.18 382.2C314.9 380.893 314.562 379.458 314.165 377.895C313.792 376.308 313.395 374.698 312.975 373.065C312.578 371.408 312.182 369.821 311.785 368.305C311.388 366.765 311.015 365.388 310.665 364.175C310.338 362.961 310.07 362.005 309.86 361.305C309.65 360.581 309.522 360.22 309.475 360.22C309.382 360.22 309.277 360.733 309.16 361.76C309.067 362.763 308.973 364.128 308.88 365.855C308.787 367.581 308.705 369.53 308.635 371.7C308.588 373.87 308.565 376.11 308.565 378.42C308.565 379.516 308.565 380.52 308.565 381.43C308.588 382.34 308.612 383.086 308.635 383.67L302.475 383.705ZM347.431 383.95C345.191 383.95 343.219 383.506 341.516 382.62C339.836 381.756 338.517 380.543 337.561 378.98C336.627 377.416 336.161 375.608 336.161 373.555C336.161 372.318 336.371 371.023 336.791 369.67C337.211 368.293 337.887 367.01 338.821 365.82C339.754 364.63 340.979 363.661 342.496 362.915C344.036 362.168 345.902 361.795 348.096 361.795C349.682 361.795 351.012 361.97 352.086 362.32C353.182 362.67 354.069 363.125 354.746 363.685C355.446 364.245 355.971 364.84 356.321 365.47C356.694 366.1 356.939 366.706 357.056 367.29C357.196 367.85 357.266 368.316 357.266 368.69C357.266 370.953 356.309 372.703 354.396 373.94C352.506 375.153 349.822 375.76 346.346 375.76C345.552 375.76 344.794 375.725 344.071 375.655C343.371 375.585 342.717 375.503 342.111 375.41C342.554 376.576 343.289 377.44 344.316 378C345.342 378.536 346.404 378.805 347.501 378.805C349.087 378.805 350.487 378.525 351.701 377.965C352.914 377.381 354.057 376.495 355.131 375.305L358.246 379.785C357.499 380.391 356.659 381.021 355.726 381.675C354.816 382.328 353.696 382.865 352.366 383.285C351.036 383.728 349.391 383.95 347.431 383.95ZM348.201 367.045C346.824 367.045 345.611 367.395 344.561 368.095C343.511 368.795 342.741 369.716 342.251 370.86C342.834 370.953 343.406 371.035 343.966 371.105C344.549 371.151 345.121 371.175 345.681 371.175C346.194 371.175 346.777 371.128 347.431 371.035C348.107 370.941 348.761 370.801 349.391 370.615C350.044 370.428 350.581 370.195 351.001 369.915C351.421 369.611 351.631 369.261 351.631 368.865C351.631 368.678 351.537 368.445 351.351 368.165C351.164 367.885 350.826 367.628 350.336 367.395C349.846 367.161 349.134 367.045 348.201 367.045ZM361.237 383.67C361.167 381.616 361.109 379.715 361.062 377.965C361.039 376.215 361.027 374.488 361.027 372.785C361.027 371.081 361.039 369.378 361.062 367.675C361.109 365.948 361.179 364.105 361.272 362.145H367.187C367.094 363.195 367.012 364.256 366.942 365.33C367.736 364.326 368.681 363.498 369.777 362.845C370.874 362.168 372.169 361.83 373.662 361.83C375.132 361.83 376.334 362.075 377.267 362.565C378.224 363.055 378.971 363.731 379.507 364.595C380.067 365.458 380.464 366.45 380.697 367.57C380.954 368.666 381.117 369.856 381.187 371.14C381.257 372.4 381.292 373.671 381.292 374.955C381.292 376.355 381.269 377.696 381.222 378.98C381.176 380.263 381.129 381.336 381.082 382.2C381.036 383.063 381.001 383.576 380.977 383.74H375.097C375.144 382.783 375.191 381.768 375.237 380.695C375.284 379.598 375.331 378.525 375.377 377.475C375.424 376.401 375.447 375.433 375.447 374.57C375.447 369.6 374.642 367.115 373.032 367.115C371.702 367.115 370.489 367.698 369.392 368.865C368.319 370.008 367.421 371.455 366.697 373.205C366.697 373.438 366.697 373.671 366.697 373.905C366.697 375.025 366.697 376.191 366.697 377.405C366.721 378.595 366.744 379.738 366.767 380.835C366.814 381.908 366.849 382.841 366.872 383.635L361.237 383.67ZM392.482 384.02C390.989 384.02 389.752 383.751 388.772 383.215C387.816 382.701 387.046 381.99 386.462 381.08C385.902 380.17 385.482 379.155 385.202 378.035C384.946 376.891 384.771 375.713 384.677 374.5C384.607 373.263 384.572 372.073 384.572 370.93C384.572 369.623 384.607 368.293 384.677 366.94C384.771 365.586 384.864 364.105 384.957 362.495L391.362 362.11C391.292 362.6 391.187 363.335 391.047 364.315C390.907 365.295 390.779 366.415 390.662 367.675C390.546 368.935 390.487 370.253 390.487 371.63C390.487 373.893 390.686 375.573 391.082 376.67C391.479 377.743 392.074 378.28 392.867 378.28C394.454 378.28 395.621 377.125 396.367 374.815C397.114 372.505 397.487 368.853 397.487 363.86V362.25L400.462 362.18L404.067 362.11C403.741 364.303 403.496 366.321 403.332 368.165C403.169 370.008 403.064 371.56 403.017 372.82C402.971 374.056 402.947 374.885 402.947 375.305C402.947 376.378 403.041 377.148 403.227 377.615C403.414 378.058 403.741 378.28 404.207 378.28C404.441 378.28 404.697 378.233 404.977 378.14C405.257 378.046 405.584 377.883 405.957 377.65L405.712 383.67C404.826 383.81 404.056 383.88 403.402 383.88C402.282 383.88 401.361 383.67 400.637 383.25C399.937 382.83 399.377 382.27 398.957 381.57C398.234 382.34 397.336 382.935 396.262 383.355C395.212 383.798 393.952 384.02 392.482 384.02Z" fill="white"/>
<rect x="115" y="155.15" width="377" height="90" rx="29" fill="#EDE686"/>
<defs>
<linearGradient id="paint0_linear_6_6" x1="303.42" y1="1.59782" x2="303.42" y2="442.749" gradientUnits="userSpaceOnUse">
<stop stop-color="#5B9AA1"/>
<stop offset="0.0001" stop-color="#FFFF33"/>
<stop offset="1" stop-color="#FDFF6E"/>
</linearGradient>
</defs>
</svg>
