<svg width="608" height="443" viewBox="0 0 608 443" fill="none" xmlns="http://www.w3.org/2000/svg">
<rect opacity="0.6" x="1.50394" y="3.09387" width="603.841" height="438.151" rx="78.5" transform="rotate(-0.150861 1.50394 3.09387)" fill="url(#paint0_linear_7_14)" stroke="#0F0909" stroke-width="3"/>
<path d="M149.24 71.2697C149.208 70.2457 149.176 69.1737 149.144 68.0537C149.144 66.9337 149.144 65.7337 149.144 64.4537C149.144 62.7897 149.16 61.0617 149.192 59.2697C149.224 57.4777 149.288 55.7017 149.384 53.9417C147.624 53.0457 145.928 51.7497 144.296 50.0537C142.696 48.3257 141.176 46.4217 139.736 44.3417C138.296 42.2297 137 40.1177 135.848 38.0057C134.696 35.8937 133.72 33.9897 132.92 32.2937L140.84 29.0777C141.384 30.4857 142.088 32.0057 142.952 33.6377C143.816 35.2377 144.76 36.8217 145.784 38.3897C146.808 39.9577 147.816 41.3817 148.808 42.6617C149.832 43.9097 150.744 44.9177 151.544 45.6857C152.376 46.4537 153.016 46.8377 153.464 46.8377C153.944 46.8377 154.536 46.5017 155.24 45.8297C155.976 45.1577 156.744 44.2777 157.544 43.1897C158.376 42.0697 159.208 40.8537 160.04 39.5417C160.904 38.1977 161.704 36.8537 162.44 35.5097C163.208 34.1337 163.864 32.8697 164.408 31.7177C164.984 30.5337 165.4 29.5737 165.656 28.8377L173.72 31.9097C172.824 33.6377 171.8 35.5897 170.648 37.7657C169.496 39.9097 168.232 42.0537 166.856 44.1977C165.48 46.3417 164.024 48.2777 162.488 50.0057C160.952 51.7337 159.352 53.0457 157.688 53.9417C157.624 55.5417 157.592 57.4297 157.592 59.6057C157.592 61.7497 157.608 63.8777 157.64 65.9897C157.704 68.1017 157.752 69.9097 157.784 71.4137C157.208 71.4137 156.52 71.4137 155.72 71.4137C154.92 71.4457 154.104 71.4617 153.272 71.4617C152.44 71.4937 151.672 71.5097 150.968 71.5097C150.296 71.5417 149.816 71.5577 149.528 71.5577L149.24 71.2697ZM192.138 72.0857C189.578 72.0857 187.338 71.6697 185.418 70.8377C183.53 70.0057 181.962 68.8697 180.714 67.4297C179.466 65.9577 178.538 64.2777 177.93 62.3897C177.322 60.5017 177.018 58.5177 177.018 56.4377C177.018 54.3257 177.386 52.3737 178.122 50.5817C178.89 48.7577 179.93 47.1737 181.242 45.8297C182.586 44.4857 184.154 43.4457 185.946 42.7097C187.738 41.9417 189.69 41.5577 191.802 41.5577C194.01 41.5577 196.058 41.9417 197.946 42.7097C199.834 43.4777 201.482 44.5497 202.89 45.9257C204.298 47.3017 205.386 48.9177 206.154 50.7737C206.954 52.6297 207.354 54.6457 207.354 56.8217C207.354 61.6537 206.026 65.4137 203.37 68.1017C200.714 70.7577 196.97 72.0857 192.138 72.0857ZM192.09 64.3097C194.426 64.3097 196.202 63.6537 197.418 62.3417C198.666 61.0297 199.29 59.1417 199.29 56.6777C199.29 54.4697 198.618 52.6937 197.274 51.3497C195.93 50.0057 194.17 49.3337 191.994 49.3337C190.682 49.3337 189.482 49.6857 188.394 50.3897C187.306 51.0617 186.426 51.9737 185.754 53.1257C185.114 54.2457 184.794 55.4937 184.794 56.8697C184.794 58.0857 185.034 59.2697 185.514 60.4217C186.026 61.5737 186.826 62.5177 187.914 63.2537C189.002 63.9577 190.394 64.3097 192.09 64.3097ZM221.773 72.0857C219.725 72.0857 218.029 71.7177 216.685 70.9817C215.373 70.2777 214.317 69.3017 213.517 68.0537C212.749 66.8057 212.173 65.4137 211.789 63.8777C211.437 62.3097 211.197 60.6937 211.069 59.0297C210.973 57.3337 210.925 55.7017 210.925 54.1337C210.925 52.3417 210.973 50.5177 211.069 48.6617C211.197 46.8057 211.325 44.7737 211.453 42.5657L220.237 42.0377C220.141 42.7097 219.997 43.7177 219.805 45.0617C219.613 46.4057 219.437 47.9417 219.277 49.6697C219.117 51.3977 219.037 53.2057 219.037 55.0937C219.037 58.1977 219.309 60.5017 219.853 62.0057C220.397 63.4777 221.213 64.2137 222.301 64.2137C224.477 64.2137 226.077 62.6297 227.101 59.4617C228.125 56.2937 228.637 51.2857 228.637 44.4377V42.2297L232.717 42.1337L237.661 42.0377C237.213 45.0457 236.877 47.8137 236.653 50.3417C236.429 52.8697 236.285 54.9977 236.221 56.7257C236.157 58.4217 236.125 59.5577 236.125 60.1337C236.125 61.6057 236.253 62.6617 236.509 63.3017C236.765 63.9097 237.213 64.2137 237.853 64.2137C238.173 64.2137 238.525 64.1497 238.909 64.0217C239.293 63.8937 239.741 63.6697 240.253 63.3497L239.917 71.6057C238.701 71.7977 237.645 71.8937 236.749 71.8937C235.213 71.8937 233.949 71.6057 232.957 71.0297C231.997 70.4537 231.229 69.6857 230.653 68.7257C229.661 69.7817 228.429 70.5977 226.957 71.1737C225.517 71.7817 223.789 72.0857 221.773 72.0857ZM259.067 71.3657C259.035 70.3417 259.019 69.3017 259.019 68.2457C259.019 67.2217 259.019 66.1977 259.019 65.1737C259.019 60.4697 259.115 55.9097 259.307 51.4937C259.499 47.0457 259.723 42.8057 259.979 38.7737C258.699 39.0937 257.627 39.3977 256.763 39.6857L254.891 32.0057C256.459 31.5257 258.107 31.1097 259.835 30.7577C261.595 30.3737 263.307 30.0697 264.971 29.8457C266.667 29.5897 268.219 29.4137 269.627 29.3177C271.067 29.1897 272.251 29.1257 273.179 29.1257C274.171 29.1257 275.387 29.2057 276.827 29.3657C278.299 29.5257 279.803 29.8617 281.339 30.3737C282.907 30.8537 284.363 31.5897 285.707 32.5817C287.051 33.5737 288.139 34.9177 288.971 36.6137C289.835 38.2777 290.267 40.3737 290.267 42.9017C290.267 45.5257 289.691 47.7177 288.539 49.4777C287.387 51.2057 285.867 52.5977 283.979 53.6537C282.091 54.6777 280.011 55.4137 277.739 55.8617C275.467 56.3097 273.227 56.5337 271.019 56.5337C269.611 56.5337 268.267 56.4697 266.987 56.3417C266.955 57.8777 266.939 59.3977 266.939 60.9017C266.939 62.9497 266.955 64.8537 266.987 66.6137C267.019 68.3417 267.083 69.8617 267.179 71.1737L259.067 71.3657ZM272.939 36.9977C272.107 36.9977 271.243 37.0297 270.347 37.0937C269.483 37.1577 268.619 37.2377 267.755 37.3337C267.595 39.0297 267.467 40.8697 267.371 42.8537C267.275 44.8377 267.195 46.8697 267.131 48.9497C268.315 49.0457 269.547 49.0937 270.827 49.0937C278.507 49.0937 282.347 46.8217 282.347 42.2777C282.347 40.4857 281.579 39.1577 280.043 38.2937C278.507 37.4297 276.139 36.9977 272.939 36.9977ZM308.904 72.0857C306.344 72.0857 304.104 71.6697 302.184 70.8377C300.296 70.0057 298.728 68.8697 297.48 67.4297C296.232 65.9577 295.304 64.2777 294.696 62.3897C294.088 60.5017 293.784 58.5177 293.784 56.4377C293.784 54.3257 294.152 52.3737 294.888 50.5817C295.656 48.7577 296.696 47.1737 298.008 45.8297C299.352 44.4857 300.92 43.4457 302.712 42.7097C304.504 41.9417 306.456 41.5577 308.568 41.5577C310.776 41.5577 312.824 41.9417 314.712 42.7097C316.6 43.4777 318.248 44.5497 319.656 45.9257C321.064 47.3017 322.152 48.9177 322.92 50.7737C323.72 52.6297 324.12 54.6457 324.12 56.8217C324.12 61.6537 322.792 65.4137 320.136 68.1017C317.48 70.7577 313.736 72.0857 308.904 72.0857ZM308.856 64.3097C311.192 64.3097 312.968 63.6537 314.184 62.3417C315.432 61.0297 316.056 59.1417 316.056 56.6777C316.056 54.4697 315.384 52.6937 314.04 51.3497C312.696 50.0057 310.936 49.3337 308.76 49.3337C307.448 49.3337 306.248 49.6857 305.16 50.3897C304.072 51.0617 303.192 51.9737 302.52 53.1257C301.88 54.2457 301.56 55.4937 301.56 56.8697C301.56 58.0857 301.8 59.2697 302.28 60.4217C302.792 61.5737 303.592 62.5177 304.68 63.2537C305.768 63.9577 307.16 64.3097 308.856 64.3097ZM328.266 81.7817C328.042 79.2217 327.882 76.6457 327.786 74.0537C327.69 71.4617 327.642 68.4697 327.642 65.0777C327.642 60.9497 327.706 56.8377 327.834 52.7417C327.962 48.6457 328.154 44.9017 328.41 41.5097L336.666 41.7497C336.57 42.4857 336.49 43.2697 336.426 44.1017C337.578 43.3337 338.81 42.7737 340.122 42.4217C341.466 42.0697 342.826 41.8937 344.202 41.8937C345.962 41.8937 347.674 42.1817 349.338 42.7577C351.002 43.3017 352.506 44.1817 353.85 45.3977C355.194 46.5817 356.25 48.1177 357.018 50.0057C357.818 51.8937 358.218 54.1657 358.218 56.8217C358.218 59.4457 357.818 61.7337 357.018 63.6857C356.218 65.6377 355.146 67.2377 353.802 68.4857C352.458 69.7657 350.954 70.7097 349.29 71.3177C347.626 71.9577 345.914 72.2777 344.154 72.2777C340.922 72.2777 338.074 71.3177 335.61 69.3977C335.674 71.4457 335.77 73.4137 335.898 75.3017C336.026 77.2217 336.186 79.1737 336.378 81.1577L328.266 81.7817ZM342.906 49.8617C339.738 49.8617 337.354 51.4137 335.754 54.5177C335.658 56.4377 335.594 58.3897 335.562 60.3737C336.33 61.3977 337.322 62.2937 338.538 63.0617C339.754 63.7977 341.306 64.1657 343.194 64.1657C347.706 64.1657 349.962 61.5897 349.962 56.4377C349.962 55.0617 349.706 53.9417 349.194 53.0777C348.682 52.2137 348.042 51.5577 347.274 51.1097C346.506 50.6297 345.722 50.3097 344.922 50.1497C344.122 49.9577 343.45 49.8617 342.906 49.8617ZM362.11 81.7817C361.886 79.2217 361.726 76.6457 361.63 74.0537C361.534 71.4617 361.486 68.4697 361.486 65.0777C361.486 60.9497 361.55 56.8377 361.678 52.7417C361.806 48.6457 361.998 44.9017 362.254 41.5097L370.51 41.7497C370.414 42.4857 370.334 43.2697 370.27 44.1017C371.422 43.3337 372.654 42.7737 373.966 42.4217C375.31 42.0697 376.67 41.8937 378.046 41.8937C379.806 41.8937 381.518 42.1817 383.182 42.7577C384.846 43.3017 386.35 44.1817 387.694 45.3977C389.038 46.5817 390.094 48.1177 390.862 50.0057C391.662 51.8937 392.062 54.1657 392.062 56.8217C392.062 59.4457 391.662 61.7337 390.862 63.6857C390.062 65.6377 388.99 67.2377 387.646 68.4857C386.302 69.7657 384.798 70.7097 383.134 71.3177C381.47 71.9577 379.758 72.2777 377.998 72.2777C374.766 72.2777 371.918 71.3177 369.454 69.3977C369.518 71.4457 369.614 73.4137 369.742 75.3017C369.87 77.2217 370.03 79.1737 370.222 81.1577L362.11 81.7817ZM376.75 49.8617C373.582 49.8617 371.198 51.4137 369.598 54.5177C369.502 56.4377 369.438 58.3897 369.406 60.3737C370.174 61.3977 371.166 62.2937 372.382 63.0617C373.598 63.7977 375.15 64.1657 377.038 64.1657C381.55 64.1657 383.806 61.5897 383.806 56.4377C383.806 55.0617 383.55 53.9417 383.038 53.0777C382.526 52.2137 381.886 51.5577 381.118 51.1097C380.35 50.6297 379.566 50.3097 378.766 50.1497C377.966 49.9577 377.294 49.8617 376.75 49.8617ZM410.066 71.9897C406.994 71.9897 404.29 71.3817 401.954 70.1657C399.65 68.9817 397.842 67.3177 396.53 65.1737C395.25 63.0297 394.61 60.5497 394.61 57.7337C394.61 56.0377 394.898 54.2617 395.474 52.4057C396.05 50.5177 396.978 48.7577 398.258 47.1257C399.538 45.4937 401.218 44.1657 403.298 43.1417C405.41 42.1177 407.97 41.6057 410.978 41.6057C413.154 41.6057 414.978 41.8457 416.45 42.3257C417.954 42.8057 419.17 43.4297 420.098 44.1977C421.058 44.9657 421.778 45.7817 422.258 46.6457C422.77 47.5097 423.106 48.3417 423.266 49.1417C423.458 49.9097 423.554 50.5497 423.554 51.0617C423.554 54.1657 422.242 56.5657 419.618 58.2617C417.026 59.9257 413.346 60.7577 408.578 60.7577C407.49 60.7577 406.45 60.7097 405.458 60.6137C404.498 60.5177 403.602 60.4057 402.77 60.2777C403.378 61.8777 404.386 63.0617 405.794 63.8297C407.202 64.5657 408.658 64.9337 410.162 64.9337C412.338 64.9337 414.258 64.5497 415.922 63.7817C417.586 62.9817 419.154 61.7657 420.626 60.1337L424.898 66.2777C423.874 67.1097 422.722 67.9737 421.442 68.8697C420.194 69.7657 418.658 70.5017 416.834 71.0777C415.01 71.6857 412.754 71.9897 410.066 71.9897ZM411.122 48.8057C409.234 48.8057 407.57 49.2857 406.13 50.2457C404.69 51.2057 403.634 52.4697 402.962 54.0377C403.762 54.1657 404.546 54.2777 405.314 54.3737C406.114 54.4377 406.898 54.4697 407.666 54.4697C408.37 54.4697 409.17 54.4057 410.066 54.2777C410.994 54.1497 411.89 53.9577 412.754 53.7017C413.65 53.4457 414.386 53.1257 414.962 52.7417C415.538 52.3257 415.826 51.8457 415.826 51.3017C415.826 51.0457 415.698 50.7257 415.442 50.3417C415.186 49.9577 414.722 49.6057 414.05 49.2857C413.378 48.9657 412.402 48.8057 411.122 48.8057ZM440.713 71.9417C439.049 71.9417 437.417 71.6537 435.817 71.0777C434.249 70.5017 432.825 69.6057 431.545 68.3897C430.297 67.2057 429.305 65.7177 428.569 63.9257C427.833 62.1017 427.465 59.9737 427.465 57.5417C427.465 54.7897 427.881 52.4217 428.713 50.4377C429.577 48.4217 430.713 46.7737 432.121 45.4937C433.529 44.1817 435.097 43.2057 436.825 42.5657C438.553 41.9257 440.281 41.6057 442.009 41.6057C443.033 41.6057 444.009 41.6857 444.937 41.8457C445.865 41.9737 446.729 42.1657 447.529 42.4217C447.625 40.0857 447.737 37.7337 447.865 35.3657C448.025 32.9977 448.201 30.6617 448.393 28.3577L456.457 28.8857C456.201 31.5417 455.977 34.4057 455.785 37.4777C455.593 40.5177 455.449 43.6217 455.353 46.7897C455.289 49.9577 455.257 53.0457 455.257 56.0537C455.257 58.8697 455.289 61.5577 455.353 64.1177C455.449 66.6457 455.561 68.9497 455.689 71.0297L447.385 71.6537C447.353 71.0457 447.337 70.4537 447.337 69.8777C446.409 70.4857 445.385 70.9817 444.265 71.3657C443.177 71.7497 441.993 71.9417 440.713 71.9417ZM435.193 57.1097C435.193 58.7737 435.513 60.0857 436.153 61.0457C436.793 61.9737 437.577 62.6297 438.505 63.0137C439.433 63.3977 440.329 63.5897 441.193 63.5897C442.217 63.5897 443.241 63.3657 444.265 62.9177C445.289 62.4697 446.249 61.6857 447.145 60.5657C447.145 60.1817 447.145 59.8137 447.145 59.4617C447.145 56.8697 447.177 54.2137 447.241 51.4937C445.737 50.1817 444.105 49.5257 442.345 49.5257C441.609 49.5257 440.825 49.6377 439.993 49.8617C439.161 50.0857 438.377 50.4857 437.641 51.0617C436.937 51.6057 436.345 52.3737 435.865 53.3657C435.417 54.3257 435.193 55.5737 435.193 57.1097ZM464.384 28.9337L471.968 29.3177C471.872 30.5017 471.76 32.0057 471.632 33.8297C471.536 35.6217 471.44 37.6057 471.344 39.7817C471.248 41.9257 471.152 44.1017 471.056 46.3097C470.96 48.5177 470.88 50.6297 470.816 52.6457C470.784 54.6297 470.768 56.3737 470.768 57.8777C470.768 58.2937 470.768 58.6937 470.768 59.0777C470.768 59.4617 470.784 59.7977 470.816 60.0857L463.28 59.8937C463.248 59.3497 463.232 58.7417 463.232 58.0697C463.232 57.3657 463.232 56.5977 463.232 55.7657C463.232 53.1417 463.264 50.2777 463.328 47.1737C463.424 44.0697 463.552 40.9497 463.712 37.8137C463.904 34.6457 464.128 31.6857 464.384 28.9337ZM466.832 72.1337C465.584 72.1337 464.528 71.6857 463.664 70.7897C462.832 69.9257 462.416 68.8537 462.416 67.5737C462.416 66.2937 462.848 65.2217 463.712 64.3577C464.608 63.4937 465.696 63.0617 466.976 63.0617C468.224 63.0617 469.264 63.5097 470.096 64.4057C470.96 65.3017 471.392 66.4217 471.392 67.7657C471.392 69.0777 470.976 70.1337 470.144 70.9337C469.312 71.7337 468.208 72.1337 466.832 72.1337Z" fill="white"/>
<defs>
<linearGradient id="paint0_linear_7_14" x1="303.42" y1="1.59782" x2="303.42" y2="442.749" gradientUnits="userSpaceOnUse">
<stop stop-color="#5B9AA1"/>
<stop offset="0.0001" stop-color="#D0EFF8"/>
<stop offset="1" stop-color="#383538"/>
</linearGradient>
</defs>
</svg>
